<svg id="Layer_1" data-name="Layer 1" xmlns="http://www.w3.org/2000/svg" width="320" height="320" viewBox="0 0 320 320"><defs><style>.cls-1{fill:none;}.cls-2{isolation:isolate;font-size:42.24px;font-family:ArialMT, Arial;}</style></defs><circle class="cls-1" cx="160" cy="160" r="160"/><path d="M90.42,46.57l5.41-3.12c3.66,6.36,7.31,12.69,11,19.14l-5.4,3.13Z"/><path d="M63.83,103.37l-3.08,5.43-19.14-11,3.08-5.41Z"/><path d="M101.46,258.36l5.41,3.12-11,19.09-5.44-3Z"/><path d="M225.18,43.7l5.41,3.11L219.5,65.93l-5.37-3.17C217.8,56.42,221.46,50.1,225.18,43.7Z"/><path d="M275.59,232.09l-19.12-11,3.16-5.39,19.1,11Z"/><path d="M45.29,232.63l-3.1-5.43,19-11.11,3.13,5.38Z"/><path d="M275.56,91.89c1.08,1.87,2.07,3.58,3.11,5.41l-19.1,11.06c-1-1.82-2-3.56-3.07-5.43Z"/><path d="M214.13,261.22l5.41-3.12,11.06,19.07-5.36,3.16Z"/><text class="cls-2" transform="translate(149.21 298.58)">6</text><path d="M160.15,166.08a5,5,0,0,1-5-5h0A4.93,4.93,0,0,1,165,161,5,5,0,0,1,160.15,166.08Z"/><text class="cls-2" transform="translate(24.27 178.12)">9</text><text class="cls-2" transform="translate(272.34 178.12)">3</text><text class="cls-2" transform="translate(138.98 57.27)">12</text></svg>